<svg width="19.000000" height="19.000000" viewBox="0 0 19 19" fill="none" xmlns="http://www.w3.org/2000/svg" xmlns:xlink="http://www.w3.org/1999/xlink">
	<desc>
			Created with Pixso.
	</desc>
	<defs/>
	<path id="Vector" d="M8.25 8.25L8.29 8.22C8.41 8.16 8.56 8.13 8.7 8.15C8.84 8.17 8.98 8.22 9.09 8.31C9.2 8.4 9.29 8.52 9.33 8.66C9.38 8.79 9.38 8.94 9.35 9.08L8.64 11.91C8.61 12.05 8.61 12.2 8.66 12.33C8.7 12.47 8.79 12.59 8.9 12.68C9.01 12.77 9.15 12.83 9.29 12.84C9.43 12.86 9.58 12.83 9.7 12.77L9.75 12.75M17.31 12.44C16.86 13.53 16.19 14.52 15.36 15.36C14.52 16.19 13.53 16.86 12.44 17.31C11.35 17.76 10.18 18 9 18C7.81 18 6.64 17.76 5.55 17.31C4.46 16.86 3.47 16.19 2.63 15.36C1.8 14.52 1.13 13.53 0.68 12.44C0.23 11.35 0 10.18 0 9C0 6.61 0.94 4.32 2.63 2.63C4.32 0.94 6.61 0 9 0C11.38 0 13.67 0.94 15.36 2.63C17.05 4.32 18 6.61 18 9C18 10.18 17.76 11.35 17.31 12.44ZM9 5.25L9 5.25L9 5.25L9 5.25L9 5.25Z" stroke="#FFFFFF" stroke-opacity="1.000000" stroke-width="1.200000" stroke-linejoin="round" stroke-linecap="round"/>
</svg>
